#!OML:ASF F:\VICON\USERDATA\INSTALL\rory3\rory3.ASF
:FULLY-SPECIFIED
:DEGREES
573
root 14.4281 17.631 8.82285 -1.09959 4.70045 4.56226
lowerback 10.216 1.97579 1.26326
upperback 0.782591 2.74773 -0.466829
thorax -4.82656 1.32625 -1.58533
lowerneck -15.9217 -1.69379 -13.6747
upperneck 37.9456 0.431732 4.92711
head 16.2867 -1.04945 4.69764
rclavicle 1.67476e-014 1.66979e-014
rhumerus -34.8783 -13.1044 -76.3275
rradius 32.0968
rwrist 8.13201
rhand -16.1626 10.8032
rfingers 7.12502
rthumb 10.0433 -18.9372
lclavicle 1.67476e-014 1.66979e-014
lhumerus -32.7219 18.6813 73.1839
lradius 40.1539
lwrist -0.761562
lhand -24.3571 25.2771
lfingers 7.12502
lthumb 2.13247 55.2462
rfemur -10.1367 -3.50869 19.8833
rtibia 37.993
rfoot -22.3607 0.241759
rtoes 6.82299
lfemur -8.30093 4.23393 -22.199
ltibia 32.4883
lfoot -20.9449 -13.0081
ltoes -24.4514
574
root 14.4783 17.6376 8.81942 -1.1985 4.78089 4.61172
lowerback 10.3037 1.97794 1.11564
upperback 0.813057 2.73945 -0.367831
thorax -4.85581 1.32588 -1.40127
lowerneck -15.8926 -1.72696 -13.62
upperneck 37.9371 0.402637 4.8102
head 16.2816 -1.06913 4.62951
rclavicle -5.13361e-014 5.56597e-015
rhumerus -34.7455 -13.1385 -75.911
rradius 31.8877
rwrist 8.26589
rhand -16.0108 11.0244
rfingers 7.12502
rthumb 10.1897 -18.7088
lclavicle -5.13361e-014 5.56597e-015
lhumerus -33.0516 19.1374 73.3107
lradius 39.8936
lwrist -0.912734
lhand -23.6467 24.1879
lfingers 7.12502
lthumb 2.81859 54.149
rfemur -9.89161 -3.53262 19.6334
rtibia 37.7535
rfoot -22.3999 0.131858
rtoes 6.10945
lfemur -8.5812 4.31762 -22.0518
ltibia 33.2302
lfoot -20.5971 -14.5549
ltoes -21.6978
575
root 14.5252 17.6497 8.81626 -1.34697 4.79082 4.50663
lowerback 10.4028 1.97852 1.08121
upperback 0.89813 2.74414 -0.221554
thorax -4.83083 1.33087 -1.23231
lowerneck -15.9078 -1.73087 -13.5065
upperneck 37.8519 0.43561 4.60965
head 16.2399 -1.06239 4.52088
rclavicle 9.29318e-015 -2.38542e-014
rhumerus -34.4555 -13.144 -75.5404
rradius 31.6669
rwrist 8.38925
rhand -15.9893 10.7488
rfingers 7.12502
rthumb 10.2104 -18.9834
lclavicle 9.29318e-015 -2.38542e-014
lhumerus -33.4275 19.3094 73.5593
lradius 39.8838
lwrist -0.668563
lhand -22.884 23.1325
lfingers 7.12502
lthumb 3.55514 53.0826
rfemur -9.58117 -3.30377 19.625
rtibia 37.4112
rfoot -22.2945 -0.236759
rtoes 5.67786
lfemur -8.79016 4.43229 -21.6912
ltibia 33.9366
lfoot -20.8532 -15.1018
ltoes -21.7037
576
root 14.5706 17.6638 8.8146 -1.48503 4.77124 4.33033
lowerback 10.494 1.9837 1.13599
upperback 0.973348 2.76378 -0.103743
thorax -4.80577 1.34107 -1.14505
lowerneck -16.0104 -1.73211 -13.4555
upperneck 37.8038 0.432136 4.60584
head 16.2395 -1.0548 4.50883
rclavicle -8.34896e-015 2.22639e-014
rhumerus -34.2275 -13.1469 -75.2717
rradius 31.5864
rwrist 8.58148
rhand -15.9181 10.1158
rfingers 7.12502
rthumb 10.2792 -19.613
lclavicle -8.34896e-015 2.22639e-014
lhumerus -33.7485 19.1865 73.8447
lradius 39.9132
lwrist -0.54587
lhand -22.1822 22.7197
lfingers 7.12502
lthumb 4.23286 52.6574
rfemur -9.22307 -3.11171 19.711
rtibia 37.002
rfoot -22.0985 -0.645339
rtoes 5.17599
lfemur -8.97475 4.52736 -21.2114
ltibia 34.6104
lfoot -21.0711 -14.7583
ltoes -22.0993
577
root 14.6192 17.6795 8.81118 -1.60409 4.81458 4.18066
lowerback 10.6686 1.97901 1.22658
upperback 0.989855 2.77394 -0.0299215
thorax -4.88503 1.34395 -1.12727
lowerneck -16.1314 -1.77482 -13.4488
upperneck 37.8837 0.328726 4.75127
head 16.3207 -1.08115 4.56148
rclavicle -2.40032e-014 1.51076e-014
rhumerus -34.0387 -13.3655 -74.9408
rradius 31.3963
rwrist 8.94911
rhand -15.8904 10.0464
rfingers 7.12502
rthumb 10.3059 -19.6811
lclavicle -2.40032e-014 1.51076e-014
lhumerus -33.995 18.8878 74.1668
lradius 39.8931
lwrist -0.706488
lhand -21.7771 23.7388
lfingers 7.12502
lthumb 4.62404 53.6683
rfemur -8.82194 -3.03982 19.7308
rtibia 36.506
rfoot -21.8428 -0.854584
rtoes 5.63261
lfemur -9.21431 4.44547 -20.7415
ltibia 35.2844
lfoot -21.0773 -13.939
ltoes -21.871
578
root 14.6676 17.6931 8.80478 -1.7885 4.91037 4.05265
lowerback 10.9327 1.93422 1.25419
upperback 0.99968 2.72635 0.0673475
thorax -5.02675 1.319 -1.04502
lowerneck -16.0854 -1.80228 -13.3621
upperneck 37.8613 0.219742 4.81508
head 16.3086 -1.10423 4.55414
rclavicle 3.4191e-014 7.15625e-015
rhumerus -33.8421 -13.6406 -74.5712
rradius 31.1515
rwrist 9.21082
rhand -16.19 10.242
rfingers 7.12502
rthumb 10.0169 -19.4997
lclavicle 3.4191e-014 7.15625e-015
lhumerus -34.2516 18.6629 74.4221
lradius 39.7275
lwrist -0.930455
lhand -21.5114 24.2258
lfingers 7.12502
lthumb 4.88054 54.1496
rfemur -8.33175 -2.84614 19.7254
rtibia 35.9327
rfoot -21.4679 -1.06088
rtoes 6.67698
lfemur -9.35232 4.27469 -20.2509
ltibia 35.9359
lfoot -21.236 -12.617
ltoes -22.4697
579
root 14.7167 17.7117 8.79942 -2.02066 5.02378 3.89524
lowerback 11.1431 1.8488 1.28852
upperback 1.06858 2.62635 0.195654
thorax -5.07877 1.26981 -0.922188
lowerneck -15.9911 -1.78491 -13.3289
upperneck 37.7618 0.188147 4.877
head 16.2349 -1.09925 4.56376
rclavicle -1.44616e-014 -2.06736e-014
rhumerus -33.5827 -13.9078 -74.204
rradius 30.984
rwrist 9.37732
rhand -16.3641 9.86466
rfingers 7.12502
rthumb 9.84892 -19.885
lclavicle -1.44616e-014 -2.06736e-014
lhumerus -34.4963 18.4874 74.6539
lradius 39.4355
lwrist -1.28454
lhand -21.5376 23.3498
lfingers 7.12502
lthumb 4.85528 53.2742
rfemur -7.78265 -2.68945 19.7563
rtibia 35.3195
rfoot -21.1214 -1.36947
rtoes 6.1774
lfemur -9.41814 4.0508 -19.6984
ltibia 36.5369
lfoot -21.1069 -11.1742
ltoes -22.5141
580
root 14.7672 17.737 8.79726 -2.30986 5.07799 3.51711
lowerback 11.3708 1.74603 1.56542
upperback 1.17007 2.53651 0.371577
thorax -5.09725 1.22155 -0.88663
lowerneck -16.0285 -1.75158 -13.2713
upperneck 37.7258 0.219862 4.87917
head 16.2194 -1.07627 4.5586
rclavicle 9.69075e-015 -1.19271e-014
rhumerus -33.2417 -14.4151 -73.7978
rradius 30.7752
rwrist 9.67327
rhand -16.3333 9.72814
rfingers 7.12502
rthumb 9.87858 -20.0201
lclavicle 9.69075e-015 -1.19271e-014
lhumerus -34.7442 18.302 74.8635
lradius 39.2474
lwrist -2.02901
lhand -21.2271 22.6256
lfingers 7.12502
lthumb 5.15512 52.5429
rfemur -7.16793 -2.60064 20.0245
rtibia 34.69
rfoot -20.8005 -1.75148
rtoes 4.65341
lfemur -9.44767 3.71751 -18.8767
ltibia 37.0621
lfoot -20.4427 -9.81592
ltoes -21.607
581
root 14.8197 17.7581 8.79883 -2.57459 5.07849 3.40695
lowerback 11.6029 1.70584 1.6278
upperback 1.28771 2.49679 0.423745
thorax -5.10349 1.20159 -0.866883
lowerneck -16.2012 -1.74863 -13.0371
upperneck 37.703 0.205699 4.78114
head 16.2494 -1.06194 4.47241
rclavicle 2.6985e-014 3.97569e-015
rhumerus -32.9315 -15.2395 -73.3977
rradius 30.6211
rwrist 10.0126
rhand -16.4517 9.93915
rfingers 7.12502
rthumb 9.76434 -19.8145
lclavicle 2.6985e-014 3.97569e-015
lhumerus -34.835 18.1123 75.0054
lradius 38.9077
lwrist -3.16339
lhand -21.0744 21.2281
lfingers 7.12502
lthumb 5.30248 51.1418
rfemur -6.55207 -2.52142 19.9513
rtibia 34.0827
rfoot -20.4999 -1.80773
rtoes 4.46885
lfemur -9.40278 3.38045 -18.3212
ltibia 37.4983
lfoot -19.5865 -8.18003
ltoes -20.6145
582
root 14.8765 17.7798 8.80245 -2.59163 5.12648 3.53898
lowerback 11.633 1.68847 1.51185
upperback 1.27922 2.45651 0.365554
thorax -5.13236 1.18321 -0.857504
lowerneck -16.2498 -1.7705 -12.9082
upperneck 37.7417 0.0956046 4.87623
head 16.2908 -1.07841 4.47608
rclavicle 3.13583e-014 -1.11319e-014
rhumerus -32.8548 -16.0315 -73.0201
rradius 30.6165
rwrist 10.0604
rhand -16.6173 10.014
rfingers 7.12502
rthumb 9.60464 -19.7471
lclavicle 3.13583e-014 -1.11319e-014
lhumerus -34.9794 17.7641 75.1342
lradius 38.492
lwrist -3.87576
lhand -21.4533 19.9552
lfingers 7.12502
lthumb 4.93671 49.8777
rfemur -6.2175 -2.63525 19.5518
rtibia 33.5471
rfoot -20.2166 -1.68428
rtoes 4.00494
lfemur -9.51357 2.951 -18.0604
ltibia 37.8327
lfoot -18.6538 -6.07861
ltoes -19.785
583
root 14.9306 17.8014 8.80073 -2.60858 5.22048 3.66433
lowerback 11.6991 1.63352 1.36061
upperback 1.24154 2.36409 0.331902
thorax -5.21555 1.1394 -0.796264
lowerneck -16.1704 -1.78951 -12.8639
upperneck 37.7783 0.0113397 4.93936
head 16.299 -1.10066 4.48252
rclavicle 3.97569e-016 1.59028e-015
rhumerus -32.8315 -16.5943 -72.7109
rradius 30.7625
rwrist 9.74291
rhand -16.6893 9.94488
rfingers 7.12502
rthumb 9.5351 -19.8194
lclavicle 3.97569e-016 1.59028e-015
lhumerus -35.2618 17.4864 75.2396
lradius 38.1951
lwrist -4.5407
lhand -21.5583 20.8663
lfingers 7.12502
lthumb 4.83527 50.7911
rfemur -5.96317 -2.72674 19.1776
rtibia 33.1359
rfoot -20.0248 -1.60765
rtoes 3.48842
lfemur -9.61471 2.525 -17.7439
ltibia 38.0448
lfoot -17.5105 -3.983
ltoes -18.6296
584
root 14.9836 17.8179 8.79555 -2.71716 5.25577 3.77136
lowerback 11.8183 1.57984 1.1904
upperback 1.30497 2.2711 0.314869
thorax -5.22305 1.0972 -0.706347
lowerneck -16.1491 -1.81784 -12.8388
upperneck 37.6946 -0.0862791 5.03079
head 16.2602 -1.12218 4.49721
rclavicle -2.71341e-014 -3.18055e-015
rhumerus -32.5496 -17.1655 -72.5016
rradius 30.8405
rwrist 9.39165
rhand -16.805 9.37939
rfingers 7.12502
rthumb 9.42351 -20.3899
lclavicle -2.71341e-014 -3.18055e-015
lhumerus -35.3885 17.4036 75.3078
lradius 37.8787
lwrist -5.40008
lhand -21.5986 21.4325
lfingers 7.12502
lthumb 4.79638 51.3582
rfemur -5.66292 -2.6368 18.8662
rtibia 32.8153
rfoot -19.8747 -1.64718
rtoes 3.04136
lfemur -9.58589 2.17565 -17.3528
ltibia 38.1446
lfoot -16.2648 -2.06561
ltoes -16.2499
585
root 15.0391 17.8304 8.79563 -2.81507 5.24724 4.01021
lowerback 11.8574 1.57836 0.920576
upperback 1.41368 2.22933 0.237813
thorax -5.1384 1.08265 -0.627648
lowerneck -16.1605 -1.84917 -12.8564
upperneck 37.5985 -0.206111 5.22116
head 16.2251 -1.14449 4.55997
rclavicle 1.1778e-014 2.38542e-015
rhumerus -32.2717 -17.9168 -72.2541
rradius 30.9275
rwrist 9.22744
rhand -17.3609 8.75721
rfingers 7.12502
rthumb 8.8871 -21.0356
lclavicle 1.1778e-014 2.38542e-015
lhumerus -35.3802 17.346 75.3693
lradius 37.4781
lwrist -6.33422
lhand -21.7262 21.001
lfingers 7.12502
lthumb 4.67316 50.9295
rfemur -5.35398 -2.61359 18.3755
rtibia 32.5459
rfoot -19.7973 -1.53394
rtoes 2.69649
lfemur -9.47452 1.82095 -17.1065
ltibia 38.1433
lfoot -15.2456 -0.0372645
ltoes -14.5345
586
root 15.0975 17.8411 8.79821 -2.85197 5.16677 4.16377
lowerback 11.835 1.58473 0.758405
upperback 1.45266 2.21263 0.171876
thorax -5.08878 1.07762 -0.601212
lowerneck -16.1182 -1.87503 -12.8421
upperneck 37.5043 -0.313087 5.3509
head 16.1772 -1.16563 4.59121
rclavicle 1.4064e-014 2.38542e-015
rhumerus -32.1351 -18.5517 -71.9865
rradius 31.0723
rwrist 8.91772
rhand -17.8179 8.62265
rfingers 7.12502
rthumb 8.44604 -21.1885
lclavicle 1.4064e-014 2.38542e-015
lhumerus -35.5114 17.4449 75.2954
lradius 37.0624
lwrist -7.25399
lhand -21.8912 20.7609
lfingers 7.12502
lthumb 4.5138 50.6928
rfemur -5.1243 -2.62766 17.9495
rtibia 32.2451
rfoot -19.6861 -1.33489
rtoes 2.59064
lfemur -9.36675 1.47694 -16.762
ltibia 38.0786
lfoot -14.2784 2.02496
ltoes -11.4111
